# xmcd
#
# Track frame offsets:
# 150
# 2840
# 13742
# 24270
# 36120
# 42278
# 43682
# 49750
# 57111
# 63396
# 73795
# 83447
# 95078
# 100146
# 112047
# 125844
# 137728
# 151488
# 156685
# 164549
#
# Disc length: 2441 seconds
#
#
# Revision: 0
# Processed by: cddbd v1.4PL0 Copyright (c) Steve Scherf et al.
# Submitted via: FreeRIP 2.00 
#
DISCID=14098714
DTITLE=Merle Haggard - Okie From Muskogee - Live
DYEAR=2001
DGENRE=Country
TTITLE0=Introduction by Carlton Haney
TTITLE1=Mama Tried
TTITLE2=No Hard Times
TTITLE3=Silver Wings
TTITLE4=Merle Receives Key To Muskogee
TTITLE5=Merle's Introduction to Medley
TTITLE6=Swinging Doors
TTITLE7=I'm A Lonesome Fugitive
TTITLE8=Sing Me Back Home
TTITLE9=Branded Man
TTITLE10=In The Arms Of Love (vocal, Gene Price)
TTITLE11=Workin' Man Blues
TTITLE12=Merle's Introduction to 'Hobo Bill'
TTITLE13=Hobo Bill's Last Ride
TTITLE14=Billy Overcame His Size
TTITLE15=If I Had Left It Up To You
TTITLE16=White Line Fever
TTITLE17=Blue Rock (Instrumental by The Strangers)
TTITLE18=Introduction to 'Okie From Muskogee'
TTITLE19=Okie From Muskogee
EXTD=Capitol 16277-2-9
EXTT0=
EXTT1=
EXTT2=
EXTT3=
EXTT4=
EXTT5=
EXTT6=
EXTT7=
EXTT8=
EXTT9=
EXTT10=
EXTT11=
EXTT12=
EXTT13=
EXTT14=
EXTT15=
EXTT16=
EXTT17=
EXTT18=
EXTT19=
PLAYORDER=
